<?xml version="1.0" encoding="utf-8"?>
<!-- Generator: Adobe Illustrator 21.1.0, SVG Export Plug-In . SVG Version: 6.00 Build 0)  -->
<svg version="1.1" xmlns="http://www.w3.org/2000/svg" xmlns:xlink="http://www.w3.org/1999/xlink" x="0px" y="0px"
	 viewBox="0 0 426 179" style="enable-background:new 0 0 426 179;" xml:space="preserve">
<style type="text/css">
	.st0{fill:none;stroke:#FFBC00;stroke-width:4;stroke-linecap:round;stroke-linejoin:round;stroke-miterlimit:10;}
</style>
<g id="Слой_3">
	<path class="st0" d="M124.7,72.3c-1.4,2.3,0.8,9.9-4.3,14.8c-5.1,4.9-2.4,20.2,1.9,20.4c7.6,0.4,3.6-10.2,9.1-15.6
		c4.5-4.5,4-9.8,3.7-14C134.5,71.2,128.2,66.8,124.7,72.3z"/>
	<path class="st0" d="M133.7,88.8c0,0-2,15.7,2,17.6s6.3-5.1,6.3-5.1"/>
	<path class="st0" d="M179.5,73c-1.4,2.5,1.4,9.9-3.8,15.3c-5.3,5.4-1.4,20.6,3.2,20.4c8.3-0.4,3.3-10.6,8.9-16.7
		c4.6-5,3.8-10.3,3.2-14.5C190.1,70.8,182.9,67,179.5,73z"/>
	<path class="st0" d="M199.1,71.8c1.9,5.6,6.6,9.4-0.6,18.6c-7.2,9.2-1.2,21.6,6.4,17.3s2.4-10.2,7.9-15.9c3-3.1,5.8-9.4,0.6-19.6"
		/>
	<path class="st0" d="M213.8,90.6c0,0-1.5,6.4-0.4,12.3c0.9,5.1,6.4,7.4,8,6.3"/>
	<path class="st0" d="M228.6,49.3c-0.1,11,9.3,21.3,3.2,37.9c-5.8,15.9-4,29.8,3.7,23.6c4.8-3.9,5.1-15.3,5.1-15.3"/>
	<path class="st0" d="M222.8,78c4,0.1,6.3-1.3,11.3-5.2c5.4-4.2,11,1.1,11,1.1"/>
	<path class="st0" d="M149.5,47.9c1.8,8.2-6.7,16.3-1.1,34.5c4,12.7,2,21,0.3,28"/>
	<path class="st0" d="M149.6,80.2c2.1-5.2,8.7-11.4,14.1-2.1s-3.2,8.6,0.2,19.2c2.8,8.8-11,16.2-14,5.4"/>
	<path class="st0" d="M275.1,108.8c-2.2-4-5.1-8.1-2.4-12.3s3.7-1.7,4.4-12.3s-5.2-8-1.4-11.6c4.1-3.9,9.2,3.8,9.7,11.5
		c0.5,7.2-4.6,16.8-0.7,21.2c6.3,7.2,4.3-8.1,6.5-12.8c2.1-4.6-2.5-14.4-0.2-18.8c2.3-4.4,8.4,0.1,7.6,5.1s-0.7,6.4,0.9,12.2
		c1.6,5.8-5.9,14,2.9,17.6"/>
	<path class="st0" d="M307.9,93.7c6.1-1,10.7-0.5,15.2-7.8c3.1-5.1,1.1-8.9-1.5-10.3s-8.8,1-12.4,10c-2.3,5.7-3.4,13.7,0.1,18
		c4.1,5.1,8.5,7.2,12.9,1.8c4.4-5.5-1.7-8.8,3.4-12"/>
	<path class="st0" d="M307.9,93.7c6.1-1,10.7-0.5,15.2-7.8c3.1-5.1,1.1-8.9-1.5-10.3s-8.8,1-12.4,10c-2.3,5.7-3.4,13.7,0.1,18
		c4.1,5.1,8.5,7.2,12.9,1.8c4.4-5.5-1.7-8.8,3.4-12"/>
</g>
</svg>
