<?xml version="1.0" encoding="utf-8"?>
<!-- Generator: Adobe Illustrator 21.1.0, SVG Export Plug-In . SVG Version: 6.00 Build 0)  -->
<svg version="1.1" xmlns="http://www.w3.org/2000/svg" xmlns:xlink="http://www.w3.org/1999/xlink" x="0px" y="0px"
	 viewBox="0 0 438 207" style="enable-background:new 0 0 438 207;" xml:space="preserve">
<style type="text/css">
	.st0{fill:none;stroke:#FFBC00;stroke-width:4;stroke-linecap:round;stroke-miterlimit:10;}
	.st1{fill:none;stroke:#FFBC00;stroke-width:4;stroke-linecap:round;stroke-linejoin:round;stroke-miterlimit:10;}
	.st2{fill:none;stroke:#FFBC00;stroke-width:5;stroke-linecap:round;stroke-linejoin:round;stroke-miterlimit:10;}
</style>
<g id="illustrations">
	<path class="st0" d="M80.9,94.1c2.3,4.2,2.6,9-0.4,15.3c-3,6.3-2.1,8.8-1.8,12.7"/>
	<path class="st0" d="M87.6,74.7c4.2,7.7,8.1,14.2,4.5,25.1S91.7,123,91.7,123"/>
	<path class="st0" d="M99.4,76.7c4.2,7.7,8.1,14.2,4.5,25.1c-3.5,10.9-0.4,23.2-0.4,23.2"/>
	<path class="st1" d="M156.1,99.4c-0.8-7.2-6.6-9.1-10.5-5.8c-4,3.3-3.6,18.7,2.1,16.1c9.1-4.1,11.8,8.9,7.8,16.8
		c-2.3,4.5-7.1,4.7-9.6,2.1c-1.9-2-2.4-5.4-2.4-5.4"/>
	<path class="st1" d="M166.6,79.5c0.4,9.2,9.3,17.3,4.5,31.4c-4.6,13.5-2.4,24.9,4.4,19.5c4.2-3.5,4-12.9,4-12.9"/>
	<path class="st1" d="M162.6,101c3.7-0.1,5.7-1.5,10-5.2c4.7-4,10,0.5,10,0.5"/>
	<path class="st1" d="M189.6,131.6c-1.1-12-2-12.8,2-25.9c0.8-2.7-0.2-8.9-0.2-8.9"/>
	<path class="st1" d="M204.7,101.8c-2.9-2.8-8.6-0.8-13.6,6.4"/>
	<path class="st1" d="M214.1,97.2c-1.6,2.4,0.8,9.9-4.9,15c-5.7,5.1-2.8,20.4,1.9,20.4c8.4,0.1,4.1-10.4,10.1-16.1
		c5-4.7,4.5-10,4.2-14.2C224.9,95.7,217.9,91.5,214.1,97.2z"/>
	<path class="st1" d="M223.8,113.4c0,0-2.3,15.9,2,17.6s6.9-5.3,6.9-5.3"/>
	<path class="st1" d="M242.7,80.8c-0.4,9.2,7.6,18,1.6,31.6c-5.8,13.1-4.7,24.7,2.5,19.7c4.5-3.1,5.2-12.6,5.2-12.6"/>
	<path class="st1" d="M236.4,101.9c3.7,0.2,5.8-1,10.5-4.3c5.1-3.6,9.9,1.4,9.9,1.4"/>
	<path class="st1" d="M281.9,97.8c-1.6,2.4,0.7,10.6-5.1,15.6c-5.7,5-3.1,21.5,1.6,21.9c8.4,0.8,4.2-10.7,10.4-16.3
		c5.1-4.6,4.7-10.2,4.4-14.7C292.8,97.1,285.8,92.1,281.9,97.8z"/>
	<path class="st0" d="M298.3,130.2c0.2-8.9-0.5-10.3,3.7-16.1c4.6-6.2,2.5-15.6,4.1-17.9s2.7,0,4.1,9.7c1.5,9.6-3.8,16-0.2,22.3
		c3.6,6.3,8.5,1.4,8.6-7s-0.3-11,1.8-14.3c4.1-6.4,1.2-14.4,1.2-14.4"/>
	<path class="st1" d="M342.5,101c0.2-7-5-9.4-9.1-6.6c-4.2,2.7-5.8,17.4-0.1,15.6c9.1-2.9,9.9,9.7,5.2,16.8c-2.7,4-7.2,3.7-9.2,0.9
		c-1.5-2.1-1.6-5.4-1.6-5.4"/>
	<line class="st2" x1="265.3" y1="98.2" x2="265.4" y2="98.6"/>
	<line class="st2" x1="78.9" y1="86.7" x2="79" y2="87"/>
	<path class="st1" d="M115.6,92.8c1.9,5,6.2,8.2,0.4,17s0.1,19.7,6.4,15.5c6.3-4.3,1.6-9.4,6-14.9c2.4-3,4.5-8.8-0.5-17.9"/>
	<path class="st1" d="M129.2,109.3c0,0-0.9,5.9,0.3,11.3c1.1,4.6,5.9,6.4,7.2,5.3"/>
	<path class="st0" d="M265.9,106.1c2.3,4.2,2.6,9-0.4,15.3s-2.1,8.8-1.8,12.7"/>
</g>
</svg>
