<?xml version="1.0" encoding="utf-8"?>
<!-- Generator: Adobe Illustrator 21.1.0, SVG Export Plug-In . SVG Version: 6.00 Build 0)  -->
<svg version="1.1" xmlns="http://www.w3.org/2000/svg" xmlns:xlink="http://www.w3.org/1999/xlink" x="0px" y="0px"
	 viewBox="0 0 253.7 146.7" style="enable-background:new 0 0 253.7 146.7;" xml:space="preserve">
<style type="text/css">
	.st0{fill:none;stroke:#FFBC00;stroke-width:4;stroke-linecap:round;stroke-miterlimit:10;}
	.st1{fill:none;stroke:#FFBC00;stroke-width:5;stroke-linecap:round;stroke-linejoin:round;stroke-miterlimit:10;}
	.st2{fill:none;stroke:#FFBC00;stroke-width:4;stroke-linecap:round;stroke-linejoin:round;stroke-miterlimit:10;}
</style>
<g id="Слой_3">
	<path class="st0" d="M107.2,94.2c0.1-8.6-0.5-10,3-15.6c3.8-6.1,2-15.1,3.3-17.3c1.3-2.2,2.2,0,3.6,9.3c1.3,9.3-3.1,15.5,0,21.5
		s7.3,1.3,7.2-6.8s-0.4-10.6,1.4-13.8c3.5-6.2,0.9-14,0.9-14"/>
	<path class="st0" d="M97.4,68.5c2.2,4.2,2.3,9.1-0.8,15.3c-3.2,6.2-2.3,8.7-2.2,12.7"/>
	<path class="st0" d="M83.7,47.9c3.5,8,6.8,14.7,2.3,25.4s-2.5,23.1-2.5,23.1"/>
	<line class="st1" x1="95.5" y1="61.1" x2="95.7" y2="61.4"/>
	<path class="st2" d="M174.5,69.9c-0.1-7-6.2-9.5-10.8-6.7c-4.6,2.8-5.8,17.6,0.6,15.8c10.3-2.9,11.9,9.8,6.7,17
		c-2.9,4.1-8.1,3.8-10.6,1c-1.8-2.1-2.1-5.5-2.1-5.5"/>
	<path class="st0" d="M140.3,41.8c2,10.3,2.9,17.1-2.1,27.2c-5.1,10.4,1.4,20.4-4.2,27"/>
	<path class="st2" d="M152.4,64.8c1.2,6.8-4.9,8.9-8.2,9.6c-3.3,0.7-8,6.5-8,6.5s10.2-3.4,12.4,0.2c4.5,7.3,3.2,11.6,1.5,15.3"/>
</g>
</svg>
