<?xml version="1.0" encoding="utf-8"?>
<!-- Generator: Adobe Illustrator 21.1.0, SVG Export Plug-In . SVG Version: 6.00 Build 0)  -->
<svg version="1.1" xmlns="http://www.w3.org/2000/svg" xmlns:xlink="http://www.w3.org/1999/xlink" x="0px" y="0px"
	 viewBox="0 0 466 219" style="enable-background:new 0 0 466 219;" xml:space="preserve">
<style type="text/css">
	.st0{fill:none;stroke:#FFBC00;stroke-width:4;stroke-linecap:round;stroke-linejoin:round;stroke-miterlimit:10;}
	.st1{fill:none;stroke:#FFBC00;stroke-width:4;stroke-linecap:round;stroke-miterlimit:10;}
</style>
<g id="Слой_3">
	<path class="st0" d="M150,108.4c6.8-1,11.9-0.5,16.9-7.9c3.5-5.1,1.3-9.1-1.5-10.4c-2.8-1.3-9.7,1-13.8,10.1
		c-2.6,5.7-4,13.8-0.1,18.2c4.5,5.1,9.3,7.3,14.2,1.9c5-5.5-1.8-8.9,3.9-12.1"/>
	<path class="st0" d="M177.4,109.9c6.8-0.2,12.8,2.6,17.7-5.9c3.1-5.4,2.3-8.9-0.3-10.5s-9.8-0.1-14.9,8.5
		c-3.2,5.4-5.5,13.3-2.2,18.1c3.9,5.6,8.4,8.3,13.9,3.4c5.5-4.9,1.9-6.7,7.9-9.2"/>
	<path class="st0" d="M125.1,151.6c1.3-7-5.8-14.7-1-32.9c3.2-12.2,1.6-20.1,0.2-26.8"/>
	<path class="st0" d="M125.5,121.5c2.4,5.5,9.7,12.1,15.6,2.1c5.8-9.9-3.7-9.1-0.1-20.4c3-9.4-12.3-17.1-15.5-5.6"/>
	<path class="st0" d="M115.2,100.2c-0.1-7.6-6.7-10.2-11.7-7.2s-6.3,19,0.7,17c11.1-3.2,12.8,10.6,7.3,18.3
		c-3.2,4.4-8.8,4.1-11.4,1.1c-2-2.3-2.2-5.9-2.2-5.9"/>
	<path class="st0" d="M222.1,132.3c1.7-8.1-3.6-13,1.2-31c3.4-12.6,2.5-24.1,1.9-31"/>
	<path class="st0" d="M222.1,100.9c-2.3-5.4-9.5-11.9-15.4-2.3c-6,9.5,3.5,8.9-0.2,19.8c-3.1,9,12,16.8,15.2,5.7"/>
	<path class="st0" d="M235.1,151.8c1.7-7.3-8.3-15.5-1.9-34.4c4.3-12.8,1.8-21-0.2-28"/>
	<path class="st0" d="M233.6,117.7c2.1,5.3,8.9,11.9,15.1,2.9s-3.1-8.7,0.9-19.1c3.3-8.6-11.1-16.8-14.8-6.1"/>
	<path class="st0" d="M265,94c-1.5,2.3,1.1,9.3-4.4,14.5s-2.2,19.4,2.5,19.2c8.4-0.4,3.8-10,9.6-15.8c4.9-4.8,4.2-9.7,3.8-13.6
		C275.8,91.9,268.7,88.4,265,94z"/>
	<path class="st0" d="M274.4,109.8c0,0-1.4,14.2,2.5,15.6s5.9-5,5.9-5"/>
	<path class="st0" d="M331,70.2c-0.9,10,6.7,20,0,34.5c-6.5,14-5.9,26.7,1.5,21.6c4.7-3.2,5.8-13.5,5.8-13.5"/>
	<path class="st0" d="M323.5,95.7c3.6,0.4,5.8-0.7,10.6-3.9c5.2-3.4,9.9,1.8,9.9,1.8"/>
	<path class="st1" d="M291.1,97.4c2.7,4.2-1.5,6.9-0.5,15.7c0.9,7.7-2.5,9-2.2,13"/>
	<path class="st1" d="M297.7,127.9c0.1-8.5-0.5-9.9,3-15.4c3.8-6,2-15,3.3-17.2c1.3-2.2,2.2,0,3.6,9.2c1.3,9.2-3.1,15.3,0,21.3
		s7.3,1.3,7.2-6.7c0-8-0.4-10.5,1.4-13.7c3.5-6.1,0.9-13.8,0.9-13.8"/>
	<line class="st0" x1="291.8" y1="87.4" x2="292" y2="87.9"/>
</g>
</svg>
